<?xml version="1.0" standalone="no"?>
<!DOCTYPE svg PUBLIC "-//W3C//DTD SVG 20010904//EN"
 "http://www.w3.org/TR/2001/REC-SVG-20010904/DTD/svg10.dtd">
<svg version="1.0" xmlns="http://www.w3.org/2000/svg"
 width="700.000000pt" height="700.000000pt" viewBox="0 0 700.000000 700.000000"
 preserveAspectRatio="xMidYMid meet">
<metadata>
Created by potrace 1.14, written by Peter Selinger 2001-2017
</metadata>
<g transform="translate(0.000000,700.000000) scale(0.100000,-0.100000)"
fill="#000000" stroke="none">
<path d="M2798 6995 c-1 -1 -43 -6 -93 -10 -49 -4 -92 -8 -95 -10 -3 -2 -35
-7 -70 -10 -36 -4 -67 -8 -71 -10 -3 -2 -21 -7 -40 -10 -330 -56 -744 -222
-1054 -424 -680 -441 -1165 -1151 -1315 -1926 -6 -27 -12 -61 -15 -75 -3 -14
-8 -45 -11 -70 -3 -25 -7 -56 -10 -70 -19 -116 -26 -519 -11 -670 23 -231 106
-596 166 -735 5 -11 17 -40 26 -65 24 -65 40 -101 102 -230 323 -670 930
-1224 1628 -1485 199 -75 462 -143 620 -161 28 -3 56 -7 63 -9 78 -26 638 -26
768 -1 10 2 54 9 97 16 104 15 129 20 149 26 9 3 26 7 37 9 98 22 174 44 291
84 158 53 210 74 210 83 0 4 -47 87 -104 184 l-103 176 -470 471 c-405 407
-556 570 -636 687 -9 14 -35 50 -57 80 -240 328 -390 627 -461 915 -81 330 -8
581 221 766 240 194 588 180 1059 -42 172 -81 398 -226 651 -418 138 -104 205
-168 667 -630 l438 -438 178 -102 c98 -55 182 -101 186 -101 9 0 54 109 100
241 55 158 112 395 127 524 3 33 8 63 10 66 25 42 24 654 -1 774 -3 11 -6 34
-9 50 -27 186 -95 459 -146 580 -4 11 -18 47 -31 80 -34 91 -151 329 -212 430
-381 635 -973 1103 -1672 1325 -79 25 -190 56 -235 65 -107 22 -238 45 -290
50 -36 4 -74 9 -85 12 -23 5 -491 13 -497 8z"/>
<path d="M2795 4221 c-61 -25 -80 -113 -50 -231 9 -36 18 -75 21 -87 18 -85
118 -327 191 -463 85 -156 253 -408 432 -645 133 -176 128 -170 781 -825 l565
-565 64 -225 c35 -124 69 -243 76 -265 7 -22 43 -149 81 -283 37 -133 71 -237
75 -230 6 11 10 44 25 188 2 19 6 55 9 80 3 25 8 65 11 90 3 25 7 59 9 75 2
17 7 57 11 89 3 33 8 67 9 75 2 9 4 30 4 47 1 25 25 54 151 179 82 83 154 151
160 153 5 2 96 -40 201 -93 105 -53 193 -94 195 -93 2 2 -41 92 -95 200 l-99
195 146 147 c81 80 149 148 152 150 10 8 62 15 175 21 61 4 130 8 155 10 74 6
264 18 283 17 34 -1 16 15 -30 26 -27 7 -55 14 -63 17 -47 13 -207 57 -221 60
-9 2 -92 24 -185 49 -93 25 -205 55 -249 67 -44 12 -100 27 -124 35 -25 8 -53
14 -63 14 -11 0 -256 238 -601 583 -593 592 -657 653 -807 769 -169 130 -468
336 -582 401 -326 187 -705 312 -813 268z"/>
<path d="M6117 1492 l-98 -98 25 -116 c14 -64 27 -127 30 -140 2 -13 12 -57
21 -98 9 -41 19 -86 21 -100 3 -14 7 -33 10 -42 6 -20 4 -21 -51 -9 -22 5 -58
12 -80 16 -22 3 -56 10 -75 15 -19 5 -51 12 -70 15 -19 3 -77 15 -129 26 l-95
20 -103 -103 -103 -103 32 -15 c18 -8 78 -35 133 -61 55 -26 136 -64 180 -84
44 -21 122 -57 173 -81 52 -24 95 -44 97 -44 1 0 77 -36 169 -80 91 -44 168
-80 170 -80 2 0 70 -31 151 -70 81 -38 148 -70 150 -70 2 0 60 -27 130 -61 70
-33 129 -59 130 -57 2 2 -25 64 -60 138 -35 74 -82 173 -104 220 -22 47 -62
132 -89 190 -27 58 -87 184 -132 280 -45 96 -95 202 -110 235 -15 33 -55 116
-87 185 -33 69 -74 158 -93 198 -18 39 -36 72 -39 72 -4 0 -50 -44 -104 -98z"/>
</g>
</svg>
